<mxfile host="Electron" modified="2023-07-11T15:19:38.539Z" agent="Mozilla/5.0 (Windows NT 10.0; Win64; x64) AppleWebKit/537.36 (KHTML, like Gecko) draw.io/21.6.1 Chrome/112.0.5615.204 Electron/24.6.1 Safari/537.36" etag="YhV1WVcV1LTEIS2vi_Rd" version="21.6.1" type="device">
  <diagram name="Strona-1" id="pZiLOS-h4rUN09upaWus">
    <mxGraphModel dx="1192" dy="1805" grid="0" gridSize="10" guides="1" tooltips="1" connect="1" arrows="1" fold="1" page="0" pageScale="1" pageWidth="827" pageHeight="1169" math="0" shadow="0">
      <root>
        <mxCell id="0" />
        <mxCell id="1" parent="0" />
        <mxCell id="jKPkh6eUJaieTXufwZ_y-4" style="edgeStyle=none;curved=1;rounded=0;orthogonalLoop=1;jettySize=auto;html=1;entryX=0.5;entryY=0;entryDx=0;entryDy=0;fontSize=12;startSize=8;endSize=8;" edge="1" parent="1" source="jKPkh6eUJaieTXufwZ_y-2" target="jKPkh6eUJaieTXufwZ_y-3">
          <mxGeometry relative="1" as="geometry" />
        </mxCell>
        <mxCell id="jKPkh6eUJaieTXufwZ_y-2" value="" style="ellipse;fillColor=strokeColor;html=1;fontSize=16;" vertex="1" parent="1">
          <mxGeometry x="42" y="-184" width="30" height="30" as="geometry" />
        </mxCell>
        <mxCell id="jKPkh6eUJaieTXufwZ_y-6" style="edgeStyle=none;curved=1;rounded=0;orthogonalLoop=1;jettySize=auto;html=1;entryX=0.5;entryY=0;entryDx=0;entryDy=0;fontSize=12;startSize=8;endSize=8;" edge="1" parent="1" source="jKPkh6eUJaieTXufwZ_y-3" target="jKPkh6eUJaieTXufwZ_y-5">
          <mxGeometry relative="1" as="geometry" />
        </mxCell>
        <mxCell id="jKPkh6eUJaieTXufwZ_y-3" value="Otwarcie okna logowania aplikacji" style="html=1;align=center;verticalAlign=middle;rounded=1;absoluteArcSize=1;arcSize=10;dashed=0;whiteSpace=wrap;fontSize=16;horizontal=1;" vertex="1" parent="1">
          <mxGeometry x="-27.5" y="-76" width="169" height="84" as="geometry" />
        </mxCell>
        <mxCell id="jKPkh6eUJaieTXufwZ_y-8" style="edgeStyle=none;curved=1;rounded=0;orthogonalLoop=1;jettySize=auto;html=1;entryX=0.5;entryY=0;entryDx=0;entryDy=0;fontSize=12;startSize=8;endSize=8;" edge="1" parent="1" source="jKPkh6eUJaieTXufwZ_y-5" target="jKPkh6eUJaieTXufwZ_y-7">
          <mxGeometry relative="1" as="geometry" />
        </mxCell>
        <mxCell id="jKPkh6eUJaieTXufwZ_y-5" value="Wybór panelu operacji" style="html=1;align=center;verticalAlign=middle;rounded=1;absoluteArcSize=1;arcSize=10;dashed=0;whiteSpace=wrap;fontSize=16;horizontal=1;" vertex="1" parent="1">
          <mxGeometry x="-27.5" y="91" width="169" height="84" as="geometry" />
        </mxCell>
        <mxCell id="jKPkh6eUJaieTXufwZ_y-10" value="" style="edgeStyle=none;curved=1;rounded=0;orthogonalLoop=1;jettySize=auto;html=1;fontSize=12;startSize=8;endSize=8;" edge="1" parent="1" source="jKPkh6eUJaieTXufwZ_y-7" target="jKPkh6eUJaieTXufwZ_y-9">
          <mxGeometry relative="1" as="geometry" />
        </mxCell>
        <mxCell id="jKPkh6eUJaieTXufwZ_y-7" value="Wyłączenie okna logowania do aplikacji" style="html=1;align=center;verticalAlign=middle;rounded=1;absoluteArcSize=1;arcSize=10;dashed=0;whiteSpace=wrap;fontSize=16;horizontal=1;" vertex="1" parent="1">
          <mxGeometry x="-27.5" y="258" width="169" height="84" as="geometry" />
        </mxCell>
        <mxCell id="jKPkh6eUJaieTXufwZ_y-9" value="" style="ellipse;html=1;shape=endState;fillColor=strokeColor;fontSize=16;" vertex="1" parent="1">
          <mxGeometry x="42" y="425" width="30" height="30" as="geometry" />
        </mxCell>
      </root>
    </mxGraphModel>
  </diagram>
</mxfile>
